<svg width="151" height="140" viewBox="0 0 151 140" fill="none" xmlns="http://www.w3.org/2000/svg">
<g clip-path="url(#clip0_5_68)">
<path d="M1.00994 99.8007C1.02058 99.8558 1.03735 99.9094 1.05994 99.9607C1.06994 99.9907 1.07993 100.031 1.08993 100.061L12.4983 119.818L12.5283 119.848C12.5483 119.878 12.5682 119.908 12.5982 119.948C12.6368 119.99 12.6805 120.027 12.7282 120.058C12.7582 120.078 12.7782 120.108 12.8082 120.128C12.8199 120.136 12.8341 120.139 12.8482 120.138C12.9614 120.201 13.0885 120.235 13.2182 120.238H58.3515L69.5199 139.575L69.5499 139.605C69.5699 139.635 69.5899 139.665 69.6199 139.705C69.6585 139.747 69.7021 139.784 69.7499 139.815C69.7799 139.835 69.7998 139.865 69.8298 139.885C69.8416 139.893 69.8557 139.896 69.8698 139.895C69.983 139.958 70.1101 139.992 70.2398 139.995H138.68C138.813 139.993 138.943 139.958 139.06 139.895L139.15 139.835C139.235 139.778 139.309 139.707 139.37 139.625C139.38 139.605 139.41 139.595 139.42 139.575L150.828 119.818C150.838 119.798 150.838 119.788 150.848 119.768C150.866 119.736 150.879 119.703 150.888 119.668C150.898 119.628 150.908 119.598 150.918 119.558C150.926 119.522 150.93 119.485 150.928 119.448C150.928 119.428 150.938 119.418 150.938 119.398C150.938 119.378 150.928 119.368 150.928 119.348C150.928 119.308 150.918 119.278 150.918 119.238C150.918 119.198 150.898 119.168 150.888 119.128C150.876 119.094 150.863 119.061 150.848 119.028C150.838 119.008 150.838 118.998 150.828 118.978L128.261 79.8937L139.42 60.5565C139.43 60.5365 139.43 60.5265 139.44 60.5065C139.457 60.475 139.471 60.4414 139.48 60.4065C139.49 60.3665 139.5 60.3365 139.51 60.2965C139.518 60.2605 139.521 60.2235 139.52 60.1865C139.52 60.1665 139.53 60.1565 139.53 60.1365C139.53 60.1166 139.52 60.1066 139.52 60.0866C139.52 60.0466 139.51 60.0166 139.51 59.9766C139.51 59.9366 139.49 59.9066 139.48 59.8666C139.468 59.8326 139.455 59.7992 139.44 59.7666C139.43 59.7466 139.43 59.7366 139.42 59.7166L105.215 0.435308C105.195 0.405312 105.165 0.385315 105.145 0.35532C105.11 0.309945 105.074 0.266548 105.035 0.225339C104.994 0.192006 104.95 0.161919 104.905 0.135352C104.861 0.106117 104.814 0.0825943 104.765 0.0653622C104.706 0.0462327 104.646 0.0328384 104.585 0.0253681C104.555 0.0253681 104.525 0.00537109 104.485 0.00537109H81.6681C81.6481 0.00537109 81.6381 0.0153696 81.6181 0.0153696C81.5781 0.0153696 81.5481 0.0253681 81.5081 0.0253681L81.3882 0.0553637C81.3582 0.0653622 81.3182 0.0853594 81.2882 0.0953579C81.2582 0.105356 81.2582 0.105356 81.2382 0.115355C81.2268 0.127705 81.2132 0.137871 81.1982 0.145351C81.1658 0.1655 81.1357 0.188956 81.1082 0.21534C81.0791 0.239424 81.0523 0.266206 81.0282 0.295329C81.0082 0.325324 80.9782 0.35532 80.9582 0.385315C80.9459 0.396709 80.9357 0.410263 80.9282 0.425309L58.3615 39.5196H36.0448C36.0248 39.5196 36.0148 39.5296 35.9948 39.5296C35.9548 39.5296 35.9248 39.5396 35.8848 39.5396C35.8448 39.5396 35.8048 39.5596 35.7748 39.5696C35.7408 39.5812 35.7075 39.5945 35.6749 39.6096C35.6549 39.6196 35.6449 39.6196 35.6249 39.6296C35.6049 39.6396 35.6049 39.6496 35.5849 39.6596C35.5525 39.6797 35.5224 39.7032 35.4949 39.7295C35.4658 39.7536 35.439 39.7804 35.4149 39.8095C35.3949 39.8395 35.3649 39.8695 35.3449 39.8995C35.3326 39.9109 35.3224 39.9245 35.3149 39.9395L1.09993 99.2208C1.08539 99.2526 1.0753 99.2863 1.06994 99.3208C1.04875 99.3726 1.03202 99.4261 1.01994 99.4808C1.00407 99.5325 0.997306 99.5867 0.999946 99.6408C0.998291 99.6943 1.00164 99.7478 1.00994 99.8007ZM103.995 1.70512L137.24 59.2867H116.383L83.1279 1.70512H103.995ZM115.403 98.8009H94.5362L116.373 60.9664H137.24L115.403 98.8009ZM81.6681 2.545L114.913 60.1265L93.0764 97.961L82.648 79.8837L93.8163 60.5465C93.8263 60.5265 93.8263 60.5165 93.8363 60.4965C93.8539 60.465 93.8673 60.4314 93.8763 60.3965C93.8863 60.3565 93.8963 60.3265 93.9063 60.2865C93.9146 60.2505 93.918 60.2135 93.9163 60.1765C93.9163 60.1565 93.9263 60.1465 93.9263 60.1265C93.9263 60.1066 93.9163 60.0966 93.9163 60.0766C93.9163 60.0366 93.9063 60.0066 93.9063 59.9666C93.9063 59.9266 93.8863 59.8966 93.8763 59.8566C93.8647 59.8226 93.8514 59.7892 93.8363 59.7566C93.8263 59.7366 93.8263 59.7266 93.8163 59.7066L82.398 39.9495C82.378 39.9195 82.348 39.8995 82.328 39.8695C82.2938 39.8241 82.2571 39.7807 82.218 39.7395C82.1771 39.7062 82.1336 39.6761 82.088 39.6496C82.0435 39.6223 81.9966 39.5988 81.9481 39.5796C81.8935 39.5599 81.836 39.5498 81.7781 39.5496C81.7481 39.5496 81.7081 39.5296 81.6781 39.5296H60.3212L81.6681 2.545ZM58.8615 41.2193H81.1882L91.6266 59.2867H47.9431L37.5046 41.2193H58.8615ZM36.0448 42.0592L46.4733 60.1265L13.2282 117.708L2.79968 99.6408L36.0448 42.0592ZM14.6979 118.548L47.9431 60.9664H91.6266L81.1882 79.0438H58.8615C58.8415 79.0438 58.8315 79.0538 58.8115 79.0538C58.7715 79.0538 58.7415 79.0638 58.7015 79.0638L58.5815 79.0938C58.5515 79.1038 58.5115 79.1238 58.4815 79.1338C58.4515 79.1438 58.4515 79.1438 58.4315 79.1538C58.4201 79.1661 58.4066 79.1763 58.3915 79.1838C58.3592 79.2039 58.329 79.2274 58.3015 79.2537C58.2724 79.2778 58.2456 79.3046 58.2215 79.3337C58.2015 79.3637 58.1716 79.3937 58.1516 79.4237C58.1416 79.4337 58.1216 79.4437 58.1216 79.4637L46.7132 99.2208C46.6987 99.2526 46.6886 99.2863 46.6832 99.3208C46.6621 99.3726 46.6453 99.4261 46.6332 99.4808C46.6246 99.5336 46.6213 99.5872 46.6233 99.6408C46.6216 99.6943 46.6249 99.7478 46.6332 99.8007C46.6439 99.8558 46.6606 99.9094 46.6832 99.9607C46.6932 99.9907 46.7032 100.031 46.7132 100.061L57.3917 118.548H14.6979ZM138.22 138.305H71.7296L82.158 120.238H148.648L138.22 138.305ZM70.2698 137.465L48.433 99.6408L58.8715 81.5634L80.7083 119.388L70.2698 137.465ZM148.648 118.548H82.158L60.3212 80.7235H81.1882L92.3565 100.061L92.3865 100.091C92.4064 100.126 92.4299 100.16 92.4565 100.191C92.4951 100.233 92.5388 100.27 92.5865 100.301C92.6165 100.321 92.6365 100.351 92.6665 100.371C92.6782 100.379 92.6924 100.382 92.7065 100.381C92.8197 100.444 92.9468 100.478 93.0764 100.481H115.893C116.026 100.478 116.156 100.444 116.273 100.381L116.363 100.321C116.448 100.264 116.522 100.193 116.583 100.111C116.593 100.091 116.623 100.081 116.633 100.061L127.311 81.5634L148.648 118.548Z" fill="white"/>
</g>
<defs>
<clipPath id="clip0_5_68">
<rect width="149.938" height="140" fill="white" transform="translate(0.6875)"/>
</clipPath>
</defs>
</svg>
