<svg width="140" height="142" viewBox="0 0 140 142" fill="none" xmlns="http://www.w3.org/2000/svg">
<g clip-path="url(#clip0_5_105)">
<path fill-rule="evenodd" clip-rule="evenodd" d="M138.608 49.8211C134.012 35.3036 124.81 22.6795 112.396 13.8611C99.9816 5.04265 85.0316 0.510423 69.8104 0.950961C54.5892 1.3915 39.9262 6.78079 28.0427 16.3024C16.1592 25.8241 7.70283 38.9593 3.95432 53.7183C0.205815 68.4773 1.36953 84.0558 7.26922 98.0941C13.1689 112.132 23.4831 123.865 36.6493 131.516C49.8156 139.166 65.1165 142.317 80.2342 140.491C95.3519 138.666 109.463 131.962 120.429 121.397H120.459L121.029 120.828C123.779 118.065 125.322 114.323 125.317 110.425C125.313 106.526 123.762 102.789 121.006 100.032C118.249 97.2751 114.511 95.7244 110.613 95.7201C106.714 95.7157 102.973 97.258 100.21 100.009V99.9985C94.5747 105.514 87.4537 109.267 79.7187 110.798C71.9837 112.329 63.9701 111.572 56.6587 108.619C49.3473 105.667 43.0551 100.647 38.5524 94.1734C34.0498 87.7004 31.5317 80.055 31.3067 72.1731C31.0817 64.2912 33.1593 56.5147 37.2853 49.7952C41.4113 43.0758 47.4068 37.7049 54.5378 34.3399C61.6689 30.9749 69.6262 29.7618 77.436 30.8491C85.2458 31.9363 92.5693 35.2768 98.5101 40.4615L100.48 42.4414C101.401 43.3744 101.915 44.6337 101.91 45.9444C101.906 47.2551 101.383 48.5109 100.457 49.4378C99.5298 50.3646 98.274 50.8872 96.9633 50.8916C95.6526 50.896 94.3933 50.3817 93.4603 49.4611L90.7305 46.7212L90.6305 46.8212C90.5871 46.6993 90.515 46.5896 90.4204 46.5012C85.7853 42.9912 80.2498 40.8676 74.4564 40.3769C68.6629 39.8863 62.8492 41.0487 57.6898 43.7293C52.5304 46.4099 48.2369 50.4987 45.3078 55.5211C42.3787 60.5436 40.934 66.2937 41.1414 72.1042C41.3488 77.9147 43.1998 83.5473 46.4795 88.3481C49.7592 93.149 54.3331 96.9213 59.6705 99.2272C65.0079 101.533 70.8898 102.278 76.6335 101.376C82.3773 100.473 87.7473 97.9604 92.1204 94.1288C92.9437 93.209 93.3956 92.0158 93.3882 90.7813C93.3808 89.5468 92.9147 88.3591 92.0804 87.4492C90.1105 85.3193 86.7406 85.8793 85.0707 87.2492C82.026 89.7254 78.3463 91.2951 74.4517 91.7792C70.5572 92.2632 66.6051 91.6419 63.0469 89.9863C59.4888 88.3307 56.468 85.7076 54.33 82.4167C52.1919 79.1258 51.0226 75.2998 50.9559 71.3759C50.8891 67.452 51.9274 63.5885 53.9523 60.2267C55.9771 56.8649 58.9068 54.1405 62.4066 52.3648C65.9063 50.5891 69.835 49.8337 73.7438 50.1849C77.6525 50.5361 81.3836 51.9797 84.5108 54.3508L84.5407 54.3308L86.3106 56.1008C89.0735 58.8513 92.8147 60.3936 96.7133 60.3893C100.612 60.3849 104.35 58.8342 107.106 56.0775C109.863 53.3208 111.414 49.5831 111.418 45.6845C111.423 41.7858 109.88 38.0447 107.13 35.2818L106.91 35.0618C106.876 34.9045 106.8 34.7593 106.69 34.6418C99.5267 27.7874 90.5001 23.1994 80.741 21.4527C70.9818 19.7061 60.9242 20.8784 51.8285 24.823C42.7328 28.7675 35.0034 35.3086 29.609 43.6269C24.2147 51.9451 21.3953 61.6703 21.5041 71.5839C21.6129 81.4975 24.6449 91.1585 30.2205 99.3564C35.796 107.554 43.667 113.924 52.8471 117.668C62.0272 121.412 72.108 122.364 81.8265 120.403C91.545 118.443 100.469 113.658 107.48 106.648C107.494 106.614 107.511 106.581 107.53 106.548C108.432 105.704 109.618 105.228 110.854 105.214C112.09 105.201 113.286 105.65 114.208 106.473C115.129 107.297 115.709 108.436 115.833 109.665C115.957 110.895 115.617 112.127 114.879 113.118C105.748 122.445 93.8309 128.549 80.9262 130.509C68.0214 132.469 54.8293 130.179 43.3403 123.985C31.8512 117.79 22.6887 108.026 17.2351 96.1673C11.7816 84.3084 10.333 70.9976 13.1079 58.2432C15.8828 45.4888 22.7306 33.983 32.6182 25.4618C42.5057 16.9406 54.8964 11.8663 67.9207 11.0047C80.945 10.1431 93.8961 13.5409 104.82 20.6854C115.744 27.8298 124.048 38.3334 128.479 50.611C129.209 52.6409 130.918 55.6008 134.408 55.3808C135.083 55.38 135.749 55.2229 136.353 54.9217C136.957 54.6206 137.483 54.1835 137.89 53.6449C138.297 53.1063 138.574 52.4807 138.698 51.8173C138.823 51.1539 138.792 50.4706 138.608 49.8211Z" stroke="white" stroke-width="1.9999" stroke-miterlimit="10" stroke-linecap="round" stroke-linejoin="round"/>
</g>
<defs>
<clipPath id="clip0_5_105">
<rect width="138.922" height="142" fill="white" transform="translate(0.875)"/>
</clipPath>
</defs>
</svg>
